<svg width="64" height="80" viewBox="0 0 64 80" fill="none" xmlns="http://www.w3.org/2000/svg">
<path fill-rule="evenodd" clip-rule="evenodd" d="M20.7767 77.8174L20.7767 22.517L44.4779 22.517C45.2667 22.517 45.9067 21.8076 45.9067 20.9328V2.07689C45.9067 1.20211 45.2667 0.492187 44.4779 0.492187L2.41887 0.492187C1.63016 0.492187 0.990082 1.20211 0.990082 2.07689L0.990082 77.8174C0.990082 78.6922 1.63016 79.4021 2.41887 79.4021L19.348 79.4021C20.1367 79.4021 20.7767 78.6922 20.7767 77.8174ZM43.0491 3.66104V19.3479L19.9338 19.3479L5.86184 3.66104L43.0491 3.66104ZM3.84771 5.91119L3.84771 76.2331L17.9197 76.4549V71.2255L14.3765 71.2255C13.5878 71.2255 12.9477 70.5162 12.9477 69.6414C12.9477 68.7666 13.5878 68.0567 14.3765 68.0567L17.9197 68.0567V64.8878L14.3765 64.8878C13.5878 64.8878 12.9477 64.1779 12.9477 63.3031C12.9477 62.4283 13.5878 61.7184 14.3765 61.7184H17.9197V58.5495H11.348C10.5593 58.5495 9.91923 57.8396 9.91923 56.9648C9.91923 56.0906 10.5593 55.3807 11.348 55.3807H17.9197V52.2113H14.3765C13.5878 52.2113 12.9477 51.5013 12.9477 50.6271C12.9477 49.7523 13.5878 49.0424 14.3765 49.0424H17.9197V45.8735H14.3765C13.5878 45.8735 12.9477 45.1636 12.9477 44.2888C12.9477 43.414 13.5878 42.7041 14.3765 42.7041H17.9197V39.5352H11.348C10.5593 39.5352 9.91923 38.8253 9.91923 37.9505C9.91923 37.0758 10.5593 36.3664 11.348 36.3664H17.9197V33.197H14.3765C13.5878 33.197 12.9477 32.487 12.9477 31.6123C12.9477 30.738 13.5878 30.0281 14.3765 30.0281H17.9197V26.8587H14.3765C13.5878 26.8587 12.9477 26.1493 12.9477 25.2745C12.9477 24.3997 13.5878 23.6898 14.3765 23.6898H17.9197V21.5193L3.84771 5.91119Z" fill="#D2153D"/>
<path fill-rule="evenodd" clip-rule="evenodd" d="M22.4274 40.41L22.4275 40.4142L22.4274 40.4263V40.41ZM22.4275 40.4142C22.4311 40.7536 22.5316 41.0837 22.7139 41.3551L32.8437 56.7961C32.8437 56.7961 32.9583 56.8922 33.0156 56.9562C33.0379 56.9812 33.0537 57.0061 33.0688 57.0302C33.0926 57.0678 33.1149 57.1032 33.1588 57.1327L53.0023 73.4547C54.4764 74.9204 56.5755 75.3015 58.3891 74.4318C59.3447 73.9015 60.1629 73.1089 60.7679 72.1252L61.9711 70.2513C62.7548 69.1428 63.2064 67.7862 63.2607 66.3748C63.202 64.4113 62.2736 62.609 60.7819 61.5694L40.8812 45.3115C40.7996 45.2588 40.7122 45.217 40.6234 45.1833C40.6234 45.1833 40.5374 45.1833 40.4942 45.0873L24.3187 38.9041C23.5695 38.6208 22.7556 39.0708 22.5036 39.9084C22.4543 40.0713 22.4286 40.2419 22.4275 40.4142ZM59.0912 64.1967C59.8205 64.656 60.3104 65.4763 60.4095 66.4067C60.3493 67.139 60.09 67.8323 59.6646 68.393L58.4609 70.2192C58.1429 70.7604 57.7102 71.2077 57.1999 71.5166L57.1901 71.5215C56.9225 71.6548 56.1361 72.0465 54.7071 70.8761L53.4179 69.8186L55.6097 66.4871L57.7874 63.1393L59.0912 64.1967ZM54.1342 63.2838L55.4811 61.2334L40.3796 48.8514L35.9954 55.515L51.097 67.897L52.4434 65.8624L40.7812 56.2516C40.7307 56.2147 40.6836 56.1762 40.6379 56.1328C40.0305 55.5676 39.9484 54.5568 40.4544 53.8777C40.9599 53.1986 41.864 53.1058 42.4714 53.6725L54.1342 63.2838ZM37.7581 47.4096L33.9896 53.1443L31.6545 49.5881L34.0183 45.9841L37.7581 47.4096ZM29.8779 46.8809L31.1816 44.8951L27.7143 43.5814L29.8779 46.8809Z" fill="#D2153D"/>
</svg>
