<svg width="63" height="77" viewBox="0 0 63 77" fill="none" xmlns="http://www.w3.org/2000/svg">
<path fill-rule="evenodd" clip-rule="evenodd" d="M61.8569 36.411L59.0767 35.1184V33.0633C59.1157 20.4492 51.7538 9.19473 40.7397 5.0321V2.13562C40.7397 1.27586 40.0943 0.578125 39.2995 0.578125H23.8863C23.0916 0.578125 22.4462 1.27586 22.4462 2.13562V5.0474C11.4321 9.21004 4.07014 20.4645 4.1092 33.0786V35.1496L1.35775 36.411C0.824644 36.6543 0.479004 37.2196 0.479004 37.8439V46.0198C0.479004 46.8791 1.12439 47.5768 1.91966 47.5768H3.79236V50.6918C3.79236 51.551 4.43726 52.2487 5.23253 52.2487H10.4039C10.8951 54.1984 11.6166 56.0736 12.55 57.8237L8.89153 61.7795C8.33255 62.3864 8.33255 63.3676 8.89153 63.9751L15.0135 70.5935C15.5749 71.1978 16.4824 71.1978 17.0443 70.5935L20.7028 66.6383C22.3178 67.6474 24.0465 68.4259 25.8455 68.9584V74.5492C25.8455 75.4084 26.4908 76.1062 27.2861 76.1062H35.9286C36.7238 76.1062 37.3692 75.4084 37.3692 74.5492V68.9584C39.1726 68.4274 40.9067 67.649 42.526 66.6383L46.185 70.5935C46.7464 71.1978 47.654 71.1978 48.2159 70.5935L54.3378 63.9751C54.8968 63.3676 54.8968 62.3864 54.3378 61.7795L50.6788 57.8237C51.6122 56.0736 52.3343 54.1984 52.8254 52.2487H57.9963C58.7916 52.2487 59.437 51.551 59.437 50.6918V47.5768H61.3097C62.1049 47.5768 62.7498 46.8791 62.7498 46.0198V37.8439C62.7469 37.2148 62.3944 36.6495 61.8569 36.411ZM25.2981 3.70839H37.8589V29.7302H25.3269L25.2981 3.70839ZM51.7738 49.1343H56.5703L56.5561 47.5768H43.3759C42.7188 53.4384 38.4452 58.0575 33.0233 58.769C26.5152 59.624 20.5993 54.6127 19.8099 47.5768H6.64438V49.1343H11.4409C12.1321 49.1169 12.7355 49.6341 12.8815 50.364C13.3839 52.795 14.2914 55.1062 15.5607 57.1851C15.9308 57.8005 15.8517 58.6117 15.3732 59.1316L11.9305 62.8535L16.0069 67.261L19.4496 63.5391C19.931 63.0219 20.6813 62.9364 21.2506 63.3364C23.1848 64.6976 25.3328 65.6629 27.5883 66.1865C28.2639 66.3438 28.7424 66.9961 28.7263 67.7434V73.0382H34.4879V67.7904C34.4723 67.0431 34.9502 66.3902 35.6259 66.2329C37.8818 65.7083 40.0294 64.7425 41.9641 63.3834C42.5333 62.9828 43.2836 63.0689 43.7645 63.5856L47.2072 67.3075L51.3271 62.8847L47.8843 59.1627C47.4064 58.6429 47.3268 57.8316 47.6974 57.2163C48.955 55.1246 49.8479 52.8029 50.3331 50.364C50.4786 49.6341 51.0825 49.1169 51.7738 49.1343ZM22.7484 47.5768H40.4804C39.6881 52.8748 35.0727 56.4754 30.1728 55.6188C26.3498 54.9506 23.3523 51.7099 22.7342 47.5768H22.7484ZM3.34561 44.4624H59.8831V38.9027L57.1033 37.6102C56.5702 37.3674 56.2246 36.8021 56.2246 36.1778V33.0628C56.2651 22.173 50.1329 12.3651 40.7684 8.34866V31.2878C40.7684 32.1471 40.1231 32.8448 39.3278 32.8448H23.8863C23.091 32.8448 22.4461 32.1471 22.4461 31.2878V8.34866C13.0972 12.3667 6.97239 22.1556 7.00412 33.0316V36.1461C7.00412 36.771 6.65848 37.3363 6.12538 37.579L3.34561 38.8716V44.4624Z" fill="#D2153D"/>
</svg>
