<svg width="62" height="79" viewBox="0 0 62 79" fill="none" xmlns="http://www.w3.org/2000/svg">
<path fill-rule="evenodd" clip-rule="evenodd" d="M50.4008 35.6982L50.4008 76.7682C50.4008 77.6458 49.753 78.3579 48.9547 78.3579H41.5927C40.7944 78.3579 40.1466 77.6458 40.1466 76.7676L40.1466 37.6856C40.1466 36.808 40.7944 36.0958 41.5927 36.0958H43.401L43.401 14.3923C43.401 13.5147 44.0488 12.802 44.8471 12.802L53.6405 12.802C55.5208 12.802 56.8371 10.8465 57.6035 9.25669L49.186 9.25669C48.3877 9.25669 47.7399 8.5445 47.7399 7.66639V3.75527L25.7554 3.75527L8.31263 12.2299L30.991 12.2299C31.7893 12.2299 32.4376 12.9421 32.4376 13.8197V15.2828H34.1876C34.9859 15.2828 35.6337 15.995 35.6337 16.8726C35.6337 17.7502 34.9859 18.4624 34.1876 18.4624H32.4376V22.3104H34.1876C34.9859 22.3104 35.6337 23.0232 35.6337 23.9008C35.6337 24.7783 34.9859 25.4905 34.1876 25.4905H32.4376V29.3386H34.1876C34.9859 29.3386 35.6337 30.0508 35.6337 30.9284C35.6337 31.806 34.9859 32.5181 34.1876 32.5181H32.4376V36.0958H33.6378C34.4361 36.0958 35.0844 36.808 35.0844 37.6856L35.0844 76.7676C35.0844 77.6452 34.4361 78.3574 33.6378 78.3574L25.3212 78.3574C24.5229 78.3574 23.8751 77.6452 23.8751 76.7676L23.8751 52.6792C19.5994 50.4085 15.0581 48.8042 10.3806 47.9094C3.03335 46.5895 1.09521 40.6749 1.09521 37.7335C1.09521 36.8554 1.74306 36.1432 2.54134 36.1432L29.5449 36.1432L29.5449 15.4735L1.45687 15.4735C0.762474 15.4908 0.156284 14.9628 0.0102501 14.2172V13.8832C0.0146637 13.2551 0.354755 12.6878 0.878124 12.4368L24.8728 0.718495C25.0551 0.627451 25.2521 0.578428 25.4515 0.575195L49.186 0.575195C49.9843 0.575195 50.6326 1.28738 50.6321 2.16496V6.07662L59.744 5.96564C59.9004 5.95918 60.0582 5.97965 60.2086 6.02759C60.975 6.27541 61.4146 7.15783 61.1907 8.00039C61.1039 8.36618 59.0212 15.9508 53.6552 15.9508L46.3226 15.9508V25.2362L54.3932 25.2362C60.1782 25.5702 61.2485 33.5676 61.2485 33.9016C61.2573 33.9748 61.2603 34.0497 61.2603 34.1225C61.2544 35 60.6007 35.7063 59.8024 35.6982H50.4008ZM32.1917 42.4561V39.2761L4.26294 39.2599C4.79807 41.0727 6.33093 43.9026 10.858 44.7133C16.1402 45.731 21.2499 47.6229 26.0156 50.3262C26.4802 50.6058 26.7693 51.1435 26.7678 51.7253L26.7678 75.146H32.1917V73.7464H30.4417C29.6429 73.7464 28.9951 73.0343 28.9951 72.1567C28.9951 71.2791 29.6429 70.5669 30.4417 70.5669H32.1917V66.7189H30.4417C29.6429 66.7189 28.9951 66.0067 28.9951 65.1291C28.9951 64.2515 29.6429 63.5388 30.4417 63.5388H32.1917V59.6913H30.4417C29.6429 59.6913 28.9951 58.9791 28.9951 58.1015C28.9951 57.2234 29.6429 56.5112 30.4417 56.5112H32.1917L32.1917 52.6637H30.4417C29.6429 52.6637 28.9951 51.9515 28.9951 51.0734C28.9951 50.1959 29.6429 49.4837 30.4417 49.4837H32.1917V45.6362H30.4417C29.6429 45.6362 28.9951 44.9234 28.9951 44.0459C28.9951 43.1683 29.6429 42.4561 30.4417 42.4561H32.1917ZM46.2932 36.0959V28.3367L54.2918 28.3367C56.3887 28.4638 57.4448 30.7534 57.951 32.4547H48.9399C48.1417 32.4547 47.4938 33.1669 47.4938 34.045V36.0324L46.2932 36.0959ZM43.0393 39.2759L43.0393 75.1778H47.508L47.508 39.2759L43.0393 39.2759Z" fill="#D2153D"/>
</svg>
