<svg width="65" height="68" viewBox="0 0 65 68" fill="none" xmlns="http://www.w3.org/2000/svg">
<ellipse cx="32.5" cy="33.6994" rx="32.5" ry="33.6994" fill="#0082C5"/>
<path d="M31.5076 6C31.5762 6 31.6447 6 31.7154 6C31.9063 6.24774 32.0847 6.49649 32.2609 6.75457C32.3157 6.83359 32.3704 6.91262 32.4269 6.99403C32.5448 7.16413 32.6624 7.33442 32.7798 7.50487C33.0809 7.94143 33.3855 8.3756 33.6895 8.81012C33.8132 8.98725 33.9368 9.16437 34.0605 9.34149C34.3814 9.80067 34.7041 10.2585 35.0273 10.7161C36.3615 12.6071 37.6712 14.5145 38.9677 16.4317C39.146 16.6953 39.3246 16.9588 39.5031 17.2222C40.4706 18.6503 41.437 20.079 42.3893 21.5174C42.5223 21.7176 42.6561 21.9173 42.7902 22.1167C43.3762 22.9896 43.9429 23.8731 44.4928 24.7692C44.5891 24.9259 44.6868 25.0818 44.7847 25.2375C44.9109 25.4627 44.9109 25.4627 44.9109 25.6709C44.8414 25.6713 44.7719 25.6717 44.7002 25.6722C43.0111 25.6829 41.322 25.6942 39.6329 25.7062C38.8161 25.7119 37.9993 25.7175 37.1824 25.7226C36.4707 25.7271 35.759 25.7319 35.0474 25.7372C34.6703 25.7399 34.2932 25.7425 33.9162 25.7447C33.4959 25.7471 33.0757 25.7503 32.6554 25.7536C32.5295 25.7542 32.4036 25.7548 32.2738 25.7554C32.1031 25.7569 32.1031 25.7569 31.929 25.7585C31.8295 25.7592 31.73 25.7598 31.6274 25.7605C31.4057 25.7501 31.4057 25.7501 31.2998 25.879C31.2981 26.057 31.3037 26.2351 31.3124 26.4128C31.3174 26.5205 31.3224 26.6282 31.3276 26.7391C31.3334 26.8524 31.3393 26.9657 31.3453 27.0824C31.3507 27.1961 31.3561 27.3098 31.3617 27.427C31.3752 27.709 31.3892 27.9909 31.4037 28.2728C31.4815 28.2715 31.5592 28.2702 31.6394 28.2689C32.3848 28.2564 33.1301 28.2442 33.8755 28.2321C34.2584 28.2259 34.6413 28.2197 35.0242 28.2132C37.5991 28.17 40.1711 28.1514 42.7461 28.2075C43.0612 28.2143 43.3763 28.2205 43.6915 28.2267C44.7046 28.2474 45.7172 28.2755 46.7296 28.3204C46.8173 28.324 46.9051 28.3277 46.9956 28.3314C48.3012 28.394 49.5644 28.6027 50.4956 29.5933C51.9566 31.421 52.0427 33.8407 51.8723 36.0787C51.7966 36.6912 51.6563 37.265 51.4567 37.8481C51.4291 37.9321 51.4015 38.016 51.3731 38.1026C50.9662 39.0924 50.0155 39.7977 49.0718 40.2236C46.8692 41.075 44.3671 40.9366 42.0516 40.8168C40.7416 40.7504 39.4315 40.7263 38.1202 40.7068C37.9075 40.7037 37.6948 40.7004 37.4822 40.6972C34.667 40.6548 31.8518 40.6468 29.0363 40.6454C28.7031 40.6452 28.3698 40.6448 28.0365 40.6444C27.5071 40.6438 26.9778 40.6438 26.4484 40.6442C26.2521 40.6443 26.0559 40.6443 25.8597 40.644C24.4726 40.6426 24.4726 40.6426 23.0916 40.7623C22.9757 41.1105 22.9981 41.2909 23.0457 41.6514C23.0601 41.7631 23.0745 41.8748 23.0893 41.9899C23.1051 42.1064 23.1208 42.2229 23.137 42.343C23.1524 42.4607 23.1677 42.5784 23.1835 42.6997C23.2215 42.9907 23.2602 43.2816 23.2994 43.5724C23.3662 43.5726 23.433 43.5728 23.5018 43.5729C27.4564 43.5837 31.4111 43.5949 35.3657 43.6069C35.84 43.6083 36.3144 43.6097 36.7887 43.6112C36.8831 43.6114 36.9776 43.6117 37.0749 43.612C38.606 43.6166 40.1371 43.6208 41.6683 43.6249C43.2382 43.6291 44.8081 43.6337 46.378 43.6387C47.3475 43.6417 48.317 43.6445 49.2865 43.6468C49.9504 43.6485 50.6143 43.6505 51.2782 43.6528C51.6618 43.6542 52.0454 43.6553 52.4291 43.656C52.844 43.6568 53.2589 43.6584 53.6738 43.66C53.8577 43.6602 53.8577 43.6602 54.0453 43.6603C54.1555 43.6609 54.2658 43.6615 54.3793 43.662C54.4753 43.6623 54.5712 43.6626 54.67 43.6629C54.8854 43.6765 54.8854 43.6765 54.9893 43.7806C54.9985 44.0505 55.0013 44.3176 54.9995 44.5876C54.9993 44.7086 54.9993 44.7086 54.999 44.8321C54.9984 45.0909 54.9971 45.3497 54.9958 45.6084C54.9953 45.7835 54.9948 45.9585 54.9944 46.1335C54.9932 46.5634 54.9915 46.9934 54.9893 47.4233C51.0185 47.4305 47.0476 47.436 43.0767 47.4393C42.6074 47.4396 42.138 47.4401 41.6687 47.4405C41.5286 47.4406 41.5286 47.4406 41.3856 47.4407C39.8749 47.4421 38.3642 47.4445 36.8535 47.4474C35.3022 47.4503 33.7509 47.4521 32.1995 47.4527C31.2431 47.4531 30.2867 47.4545 29.3302 47.457C28.6734 47.4587 28.0166 47.4592 27.3598 47.4588C26.9814 47.4586 26.6031 47.4588 26.2248 47.4605C22.055 47.4782 22.055 47.4782 20.6759 46.2069C19.5599 45.0223 19.3116 43.3666 19.33 41.799C19.4005 40.4225 19.8547 38.8103 20.8902 37.8286C22.1681 36.866 23.6626 36.6842 25.2086 36.6902C25.3081 36.6898 25.4076 36.6894 25.5101 36.689C26.0572 36.6897 26.6009 36.7059 27.147 36.7405C28.2151 36.8077 29.2796 36.824 30.3496 36.8257C30.5374 36.8264 30.7252 36.8271 30.9129 36.8278C31.5209 36.8299 32.129 36.831 32.737 36.8321C32.9476 36.8325 33.1583 36.8329 33.3689 36.8334C34.3568 36.8353 35.3447 36.8368 36.3326 36.8377C37.47 36.8387 38.6075 36.8415 39.745 36.8457C40.6274 36.8488 41.5098 36.8503 42.3923 36.8507C42.9182 36.8509 43.4442 36.8519 43.9701 36.8545C44.4633 36.8569 44.9565 36.8574 45.4497 36.8563C45.6306 36.8562 45.8115 36.8569 45.9924 36.8583C46.2392 36.8602 46.4859 36.8594 46.7327 36.858C46.8043 36.8592 46.8759 36.8603 46.9497 36.8615C47.4389 36.8549 47.6851 36.7373 48.0279 36.391C48.2969 35.8489 48.2703 35.2792 48.2682 34.6867C48.2699 34.5922 48.2715 34.4978 48.2733 34.4005C48.2737 33.7732 48.1762 33.3223 47.924 32.7482C47.8939 32.6479 47.8638 32.5475 47.8327 32.4441C47.7345 32.2067 47.7345 32.2067 47.4861 32.1351C47.3927 32.1228 47.2994 32.1104 47.2032 32.0977C47.1123 32.0843 47.0213 32.0709 46.9276 32.0571C46.7522 32.0386 46.7522 32.0386 46.5733 32.0197C46.4918 32.0106 46.4103 32.0016 46.3263 31.9923C45.5782 31.9155 44.8377 31.8996 44.0862 31.9026C43.9556 31.9028 43.825 31.903 43.6905 31.9032C42.7649 31.9073 41.8408 31.9303 40.9158 31.9604C39.3681 32.0102 37.8211 32.0339 36.2726 32.0381C36.0436 32.0388 35.8145 32.0399 35.5855 32.0413C30.1097 32.0733 30.1097 32.0733 28.7023 30.7707C27.6215 29.5492 27.4614 27.8919 27.5386 26.329C27.637 25.1821 27.9901 24.086 28.7347 23.199C30.3671 21.83 32.5275 21.7825 34.5634 21.7985C34.8146 21.8005 35.0657 21.8007 35.3168 21.8006C36.1648 21.8026 37.0024 21.8226 37.8456 21.924C37.4338 21.1468 36.9949 20.3945 36.5208 19.6538C36.4573 19.5542 36.3938 19.4546 36.3284 19.352C35.8928 18.6733 35.4409 18.0104 34.9656 17.3592C34.7307 17.0353 34.5051 16.7064 34.2805 16.3753C33.8925 15.8129 33.4901 15.2625 33.0791 14.7166C33.0209 14.6383 32.9628 14.5601 32.9028 14.4794C32.8477 14.4069 32.7926 14.3344 32.7357 14.2596C32.6867 14.1946 32.6377 14.1297 32.5873 14.0627C32.4383 13.8813 32.4383 13.8813 32.131 13.8059C32.1072 13.8737 32.0833 13.9414 32.0588 14.0112C31.8784 14.4303 31.6485 14.8121 31.4167 15.2045C30.2821 17.1513 29.2439 19.1437 28.2223 21.1517C28.1796 21.2357 28.1368 21.3197 28.0928 21.4062C28.0144 21.5601 27.9362 21.7141 27.8581 21.8682C27.6598 22.258 27.4591 22.6465 27.2535 23.0326C26.4034 24.6319 25.5997 26.2545 24.7927 27.8759C24.5834 28.2962 24.3739 28.7164 24.1644 29.1366C23.6333 30.2016 23.1027 31.2667 22.5721 32.3319C21.9988 33.4827 21.4255 34.6335 20.8517 35.784C20.6443 36.2001 20.4369 36.6162 20.2297 37.0324C18.667 40.172 18.667 40.172 17.8975 41.6135C17.4835 42.3931 17.1123 43.1952 16.7343 43.9928C15.4535 46.6907 15.4535 46.6907 14.5717 47.3192C13.6282 47.6343 12.4675 47.3893 11.4871 47.3192C11.3421 47.3092 11.1972 47.2991 11.0522 47.2892C10.7014 47.2648 10.3507 47.2402 10 47.2152C10.0628 46.7928 10.1996 46.4788 10.4038 46.1053C10.4664 45.9899 10.5289 45.8745 10.5933 45.7556C10.6267 45.6946 10.6602 45.6336 10.6947 45.5707C10.8734 45.2446 11.0498 44.9172 11.2265 44.59C11.2811 44.4892 11.2811 44.4892 11.3367 44.3864C11.707 43.7009 12.0655 43.0096 12.4222 42.317C12.5431 42.0825 12.6641 41.8481 12.785 41.6136C12.8418 41.5036 12.8986 41.3935 12.957 41.2801C13.5297 40.1718 14.1143 39.07 14.7043 37.9708C14.7705 37.8475 14.8367 37.7242 14.9028 37.6009C14.9357 37.5396 14.9686 37.4783 15.0025 37.4152C15.5192 36.4516 16.0259 35.4832 16.5263 34.5111C16.5757 34.4151 16.5757 34.4151 16.6261 34.3172C16.7234 34.1281 16.8207 33.939 16.918 33.75C17.5556 32.5107 18.2066 31.2789 18.8654 30.0507C18.9321 29.9264 18.9987 29.8022 19.0654 29.6779C19.115 29.5855 19.115 29.5855 19.1656 29.4911C19.8451 28.2235 20.506 26.9466 21.1652 25.6683C21.7397 24.5565 22.3262 23.4512 22.9178 22.3484C22.9844 22.2243 23.051 22.1002 23.1176 21.9761C23.1506 21.9145 23.1837 21.8529 23.2177 21.7894C23.8973 20.5217 24.5581 19.2448 25.2174 17.9665C25.7919 16.8547 26.3784 15.7494 26.97 14.6466C27.0366 14.5225 27.1031 14.3984 27.1697 14.2743C27.2028 14.2126 27.2358 14.151 27.2699 14.0875C27.8897 12.9314 28.4943 11.7678 29.0955 10.6018C29.5062 9.8055 29.923 9.0125 30.3408 8.21996C30.5787 7.76858 30.8158 7.31684 31.053 6.86515C31.141 6.69779 31.2289 6.53042 31.3168 6.36306C31.3798 6.24325 31.4427 6.12344 31.5076 6Z" fill="#F8FDFA"/>
</svg>
