<svg width="296" height="69" viewBox="0 0 296 69" fill="none" xmlns="http://www.w3.org/2000/svg">
<path d="M77.74 26.1846L82.66 13.3046H85.62L90.52 26.1846H87.72L86.5 23.0846H81.76L80.56 26.1846H77.74ZM82.16 21.0046H86.1L84.12 15.8246L82.16 21.0046ZM92.3978 26.1846V13.3046H98.5778C100.058 13.3046 101.144 13.6979 101.838 14.4846C102.531 15.2579 102.878 16.3046 102.878 17.6246C102.878 18.4912 102.651 19.2379 102.198 19.8646C101.758 20.4912 101.131 20.9446 100.318 21.2246C100.531 21.3979 100.698 21.5846 100.818 21.7846C100.951 21.9846 101.084 22.2512 101.218 22.5846L102.778 26.1846H99.9778L98.4578 22.7246C98.3245 22.4312 98.1778 22.2246 98.0178 22.1046C97.8578 21.9846 97.5911 21.9246 97.2178 21.9246H95.0978V26.1846H92.3978ZM95.0978 19.6846H97.8778C98.5845 19.6846 99.1378 19.5312 99.5378 19.2246C99.9378 18.9046 100.138 18.3712 100.138 17.6246C100.138 16.9046 99.9645 16.3779 99.6178 16.0446C99.2711 15.7112 98.7445 15.5446 98.0378 15.5446H95.0978V19.6846ZM110.328 26.3846C106.155 26.3846 104.068 24.1912 104.068 19.8046C104.068 17.4446 104.595 15.7379 105.648 14.6846C106.701 13.6312 108.261 13.1046 110.328 13.1046C112.395 13.1046 113.955 13.6312 115.008 14.6846C116.061 15.7379 116.588 17.4446 116.588 19.8046C116.588 24.1912 114.501 26.3846 110.328 26.3846ZM110.328 24.0846C111.541 24.0846 112.428 23.7379 112.988 23.0446C113.561 22.3379 113.848 21.2579 113.848 19.8046C113.848 18.1912 113.561 17.0579 112.988 16.4046C112.428 15.7379 111.541 15.4046 110.328 15.4046C109.115 15.4046 108.221 15.7379 107.648 16.4046C107.088 17.0579 106.808 18.1912 106.808 19.8046C106.808 21.2579 107.088 22.3379 107.648 23.0446C108.221 23.7379 109.115 24.0846 110.328 24.0846ZM120.271 26.1846L117.271 13.3046H119.931L121.871 22.0046L123.971 14.9846V13.3046H126.171L128.651 22.0246L130.651 13.3046H133.291L130.311 26.1846H127.751L125.391 17.9446L122.851 26.1846H120.271ZM140.23 26.3846C136.057 26.3846 133.97 24.1912 133.97 19.8046C133.97 17.4446 134.497 15.7379 135.55 14.6846C136.604 13.6312 138.164 13.1046 140.23 13.1046C142.297 13.1046 143.857 13.6312 144.91 14.6846C145.964 15.7379 146.49 17.4446 146.49 19.8046C146.49 24.1912 144.404 26.3846 140.23 26.3846ZM140.23 24.0846C141.444 24.0846 142.33 23.7379 142.89 23.0446C143.464 22.3379 143.75 21.2579 143.75 19.8046C143.75 18.1912 143.464 17.0579 142.89 16.4046C142.33 15.7379 141.444 15.4046 140.23 15.4046C139.017 15.4046 138.124 15.7379 137.55 16.4046C136.99 17.0579 136.71 18.1912 136.71 19.8046C136.71 21.2579 136.99 22.3379 137.55 23.0446C138.124 23.7379 139.017 24.0846 140.23 24.0846ZM152.374 26.3846C151.548 26.3846 150.774 26.3246 150.054 26.2046C149.348 26.0846 148.734 25.9112 148.214 25.6846V23.3046C148.801 23.5446 149.434 23.7379 150.114 23.8846C150.794 24.0312 151.461 24.1046 152.114 24.1046C153.048 24.1046 153.734 24.0179 154.174 23.8446C154.614 23.6712 154.834 23.2779 154.834 22.6646C154.834 22.2779 154.741 21.9712 154.554 21.7446C154.368 21.5179 154.041 21.3179 153.574 21.1446C153.121 20.9579 152.474 20.7512 151.634 20.5246C150.288 20.1512 149.341 19.6846 148.794 19.1246C148.248 18.5646 147.974 17.7912 147.974 16.8046C147.974 15.6179 148.408 14.7046 149.274 14.0646C150.141 13.4246 151.401 13.1046 153.054 13.1046C153.828 13.1046 154.548 13.1579 155.214 13.2646C155.881 13.3712 156.421 13.4979 156.834 13.6446V16.0246C155.741 15.6112 154.601 15.4046 153.414 15.4046C152.574 15.4046 151.914 15.4979 151.434 15.6846C150.954 15.8579 150.714 16.2312 150.714 16.8046C150.714 17.1379 150.801 17.4046 150.974 17.6046C151.148 17.8046 151.441 17.9846 151.854 18.1446C152.281 18.3046 152.874 18.4846 153.634 18.6846C154.688 18.9646 155.501 19.2979 156.074 19.6846C156.648 20.0712 157.041 20.5112 157.254 21.0046C157.481 21.4979 157.594 22.0512 157.594 22.6646C157.594 23.7846 157.168 24.6846 156.314 25.3646C155.461 26.0446 154.148 26.3846 152.374 26.3846ZM159.468 26.1846V13.3046H162.168V18.7046H167.788V13.3046H170.488V26.1846H167.788V20.7846H162.168V26.1846H159.468ZM172.769 26.1846V13.3046H182.009V15.4046H175.469V18.7046H181.269V20.7846H175.469V24.1046H182.009V26.1846H172.769ZM189.887 26.3846C187.727 26.3846 186.087 25.8179 184.967 24.6846C183.847 23.5512 183.287 21.9779 183.287 19.9646C183.287 17.8312 183.854 16.1579 184.987 14.9446C186.12 13.7179 187.807 13.1046 190.047 13.1046C190.82 13.1046 191.52 13.1512 192.147 13.2446C192.774 13.3246 193.367 13.4579 193.927 13.6446V15.9646C193.367 15.7646 192.774 15.6246 192.147 15.5446C191.534 15.4512 190.9 15.4046 190.247 15.4046C188.714 15.4046 187.627 15.7846 186.987 16.5446C186.347 17.2912 186.027 18.4312 186.027 19.9646C186.027 22.7246 187.327 24.1046 189.927 24.1046C190.38 24.1046 190.82 24.0712 191.247 24.0046C191.687 23.9246 192.074 23.8246 192.407 23.7046V20.7046H189.407V18.9846H194.687V25.2846C194.247 25.5646 193.634 25.8179 192.847 26.0446C192.06 26.2712 191.074 26.3846 189.887 26.3846ZM196.558 26.1846V13.3046H203.078C204.371 13.3046 205.331 13.6112 205.958 14.2246C206.598 14.8246 206.918 15.6779 206.918 16.7846C206.918 17.4779 206.785 18.0579 206.518 18.5246C206.251 18.9779 205.891 19.3312 205.438 19.5846C206.038 19.7712 206.511 20.0846 206.858 20.5246C207.218 20.9512 207.398 21.5846 207.398 22.4246C207.398 23.6646 207.045 24.6046 206.338 25.2446C205.645 25.8712 204.638 26.1846 203.318 26.1846H196.558ZM199.258 18.6446H202.578C203.231 18.6446 203.698 18.5046 203.978 18.2246C204.258 17.9312 204.398 17.5246 204.398 17.0046C204.398 16.4312 204.251 16.0046 203.958 15.7246C203.678 15.4446 203.151 15.3046 202.378 15.3046H199.258V18.6446ZM199.258 24.2046H202.678C203.358 24.2046 203.858 24.0646 204.178 23.7846C204.498 23.5046 204.658 23.0112 204.658 22.3046C204.658 21.7312 204.498 21.3046 204.178 21.0246C203.871 20.7446 203.311 20.6046 202.498 20.6046H199.258V24.2046ZM209.273 26.1846V13.3046H218.513V15.4046H211.973V18.7046H217.773V20.7846H211.973V24.1046H218.513V26.1846H209.273Z" fill="white"/>
<ellipse cx="32.5" cy="33.6994" rx="32.5" ry="33.6994" fill="#0082C5"/>
<path d="M31.5076 6.22168C31.5762 6.22168 31.6447 6.22168 31.7154 6.22168C31.9063 6.46942 32.0847 6.71817 32.2609 6.97625C32.3157 7.05527 32.3704 7.1343 32.4269 7.21571C32.5448 7.38581 32.6624 7.5561 32.7798 7.72655C33.0809 8.16311 33.3855 8.59728 33.6895 9.0318C33.8132 9.20892 33.9368 9.38605 34.0605 9.56317C34.3814 10.0224 34.7041 10.4802 35.0273 10.9377C36.3615 12.8288 37.6712 14.7362 38.9677 16.6534C39.146 16.917 39.3246 17.1804 39.5031 17.4439C40.4706 18.872 41.437 20.3007 42.3893 21.7391C42.5223 21.9393 42.6561 22.1389 42.7902 22.3384C43.3762 23.2113 43.9429 24.0947 44.4928 24.9909C44.5891 25.1476 44.6868 25.3034 44.7847 25.4592C44.9109 25.6844 44.9109 25.6844 44.9109 25.8925C44.8414 25.893 44.7719 25.8934 44.7002 25.8939C43.0111 25.9046 41.322 25.9159 39.6329 25.9279C38.8161 25.9336 37.9993 25.9392 37.1824 25.9443C36.4707 25.9488 35.759 25.9536 35.0474 25.9588C34.6703 25.9616 34.2932 25.9642 33.9162 25.9663C33.4959 25.9688 33.0757 25.972 32.6554 25.9753C32.5295 25.9759 32.4036 25.9765 32.2738 25.9771C32.1031 25.9786 32.1031 25.9786 31.929 25.9802C31.8295 25.9808 31.73 25.9815 31.6274 25.9822C31.4057 25.9717 31.4057 25.9717 31.2998 26.1007C31.2981 26.2787 31.3037 26.4567 31.3124 26.6345C31.3174 26.7422 31.3224 26.8498 31.3276 26.9608C31.3334 27.0741 31.3393 27.1874 31.3453 27.3041C31.3507 27.4178 31.3561 27.5315 31.3617 27.6487C31.3752 27.9306 31.3892 28.2126 31.4037 28.4945C31.4815 28.4932 31.5592 28.4919 31.6394 28.4906C32.3848 28.4781 33.1301 28.4658 33.8755 28.4538C34.2584 28.4476 34.6413 28.4413 35.0242 28.4349C37.5991 28.3917 40.1711 28.3731 42.7461 28.4292C43.0612 28.436 43.3763 28.4422 43.6915 28.4484C44.7046 28.4691 45.7172 28.4972 46.7296 28.5421C46.8173 28.5457 46.9051 28.5494 46.9956 28.5531C48.3012 28.6157 49.5644 28.8244 50.4956 29.815C51.9566 31.6427 52.0427 34.0624 51.8723 36.3004C51.7966 36.9129 51.6563 37.4867 51.4567 38.0698C51.4291 38.1537 51.4015 38.2377 51.3731 38.3243C50.9662 39.314 50.0155 40.0194 49.0718 40.4453C46.8692 41.2967 44.3671 41.1583 42.0516 41.0384C40.7416 40.9721 39.4315 40.948 38.1202 40.9285C37.9075 40.9254 37.6948 40.9221 37.4822 40.9188C34.667 40.8764 31.8518 40.8685 29.0363 40.8671C28.7031 40.8669 28.3698 40.8665 28.0365 40.8661C27.5071 40.8654 26.9778 40.8654 26.4484 40.8659C26.2521 40.866 26.0559 40.8659 25.8597 40.8657C24.4726 40.8643 24.4726 40.8643 23.0916 40.984C22.9757 41.3322 22.9981 41.5126 23.0457 41.8731C23.0601 41.9848 23.0745 42.0965 23.0893 42.2116C23.1051 42.3281 23.1208 42.4446 23.137 42.5647C23.1524 42.6824 23.1677 42.8001 23.1835 42.9214C23.2215 43.2124 23.2602 43.5033 23.2994 43.7941C23.3662 43.7943 23.433 43.7944 23.5018 43.7946C27.4564 43.8053 31.4111 43.8166 35.3657 43.8285C35.84 43.83 36.3144 43.8314 36.7887 43.8328C36.8831 43.8331 36.9776 43.8334 37.0749 43.8337C38.606 43.8383 40.1371 43.8425 41.6683 43.8466C43.2382 43.8508 44.8081 43.8554 46.378 43.8604C47.3475 43.8634 48.317 43.8662 49.2865 43.8685C49.9504 43.8702 50.6143 43.8722 51.2782 43.8745C51.6618 43.8758 52.0454 43.877 52.4291 43.8777C52.844 43.8785 53.2589 43.88 53.6738 43.8817C53.8577 43.8818 53.8577 43.8818 54.0453 43.882C54.1555 43.8826 54.2658 43.8831 54.3793 43.8837C54.4753 43.884 54.5712 43.8843 54.67 43.8846C54.8854 43.8982 54.8854 43.8982 54.9893 44.0022C54.9985 44.2722 55.0013 44.5393 54.9995 44.8093C54.9993 44.9303 54.9993 44.9303 54.999 45.0538C54.9984 45.3126 54.9971 45.5714 54.9958 45.8301C54.9953 46.0051 54.9948 46.1802 54.9944 46.3552C54.9932 46.7851 54.9915 47.2151 54.9893 47.645C51.0185 47.6521 47.0476 47.6576 43.0767 47.6609C42.6074 47.6613 42.138 47.6617 41.6687 47.6621C41.5286 47.6623 41.5286 47.6623 41.3856 47.6624C39.8749 47.6637 38.3642 47.6662 36.8535 47.6691C35.3022 47.672 33.7509 47.6737 32.1995 47.6744C31.2431 47.6748 30.2867 47.6761 29.3302 47.6787C28.6734 47.6803 28.0166 47.6808 27.3598 47.6804C26.9814 47.6802 26.6031 47.6805 26.2248 47.6822C22.055 47.6999 22.055 47.6999 20.6759 46.4286C19.5599 45.244 19.3116 43.5883 19.33 42.0207C19.4005 40.6442 19.8547 39.032 20.8902 38.0502C22.1681 37.0876 23.6626 36.9059 25.2086 36.9119C25.3081 36.9115 25.4076 36.9111 25.5101 36.9107C26.0572 36.9114 26.6009 36.9276 27.147 36.9622C28.2151 37.0294 29.2796 37.0457 30.3496 37.0474C30.5374 37.048 30.7252 37.0487 30.9129 37.0495C31.5209 37.0516 32.129 37.0527 32.737 37.0538C32.9476 37.0542 33.1583 37.0546 33.3689 37.0551C34.3568 37.057 35.3447 37.0585 36.3326 37.0594C37.47 37.0604 38.6075 37.0632 39.745 37.0673C40.6274 37.0705 41.5098 37.072 42.3923 37.0724C42.9182 37.0726 43.4442 37.0735 43.9701 37.0762C44.4633 37.0786 44.9565 37.079 45.4497 37.078C45.6306 37.0779 45.8115 37.0786 45.9924 37.08C46.2392 37.0818 46.4859 37.0811 46.7327 37.0797C46.8043 37.0809 46.8759 37.082 46.9497 37.0832C47.4389 37.0766 47.6851 36.9589 48.0279 36.6127C48.2969 36.0706 48.2703 35.5009 48.2682 34.9084C48.2699 34.8139 48.2715 34.7195 48.2733 34.6221C48.2737 33.9949 48.1762 33.544 47.924 32.9699C47.8939 32.8695 47.8638 32.7692 47.8327 32.6658C47.7345 32.4283 47.7345 32.4283 47.4861 32.3568C47.3927 32.3445 47.2994 32.3321 47.2032 32.3194C47.1123 32.306 47.0213 32.2926 46.9276 32.2788C46.7522 32.2602 46.7522 32.2602 46.5733 32.2413C46.4918 32.2323 46.4103 32.2233 46.3263 32.214C45.5782 32.1372 44.8377 32.1213 44.0862 32.1243C43.9556 32.1245 43.825 32.1247 43.6905 32.1249C42.7649 32.129 41.8408 32.152 40.9158 32.182C39.3681 32.2319 37.8211 32.2556 36.2726 32.2598C36.0436 32.2605 35.8145 32.2616 35.5855 32.263C30.1097 32.295 30.1097 32.295 28.7023 30.9924C27.6215 29.7709 27.4614 28.1136 27.5386 26.5507C27.637 25.4037 27.9901 24.3077 28.7347 23.4207C30.3671 22.0517 32.5275 22.0042 34.5634 22.0202C34.8146 22.0221 35.0657 22.0224 35.3168 22.0223C36.1648 22.0243 37.0024 22.0443 37.8456 22.1457C37.4338 21.3684 36.9949 20.6162 36.5208 19.8755C36.4573 19.7759 36.3938 19.6763 36.3284 19.5737C35.8928 18.895 35.4409 18.2321 34.9656 17.5809C34.7307 17.257 34.5051 16.9281 34.2805 16.597C33.8925 16.0345 33.4901 15.4842 33.0791 14.9383C33.0209 14.86 32.9628 14.7817 32.9028 14.7011C32.8477 14.6286 32.7926 14.556 32.7357 14.4813C32.6867 14.4163 32.6377 14.3514 32.5873 14.2844C32.4383 14.1029 32.4383 14.1029 32.131 14.0276C32.1072 14.0953 32.0833 14.1631 32.0588 14.2329C31.8784 14.652 31.6485 15.0338 31.4167 15.4261C30.2821 17.373 29.2439 19.3654 28.2223 21.3734C28.1796 21.4574 28.1368 21.5413 28.0928 21.6279C28.0144 21.7818 27.9362 21.9358 27.8581 22.0898C27.6598 22.4797 27.4591 22.8682 27.2535 23.2543C26.4034 24.8536 25.5997 26.4762 24.7927 28.0976C24.5834 28.5179 24.3739 28.9381 24.1644 29.3583C23.6333 30.4233 23.1027 31.4884 22.5721 32.5536C21.9988 33.7044 21.4255 34.8551 20.8517 36.0057C20.6443 36.4218 20.4369 36.8379 20.2297 37.2541C18.667 40.3937 18.667 40.3937 17.8975 41.8352C17.4835 42.6148 17.1123 43.4169 16.7343 44.2145C15.4535 46.9124 15.4535 46.9124 14.5717 47.5409C13.6282 47.8559 12.4675 47.611 11.4871 47.5409C11.3421 47.5309 11.1972 47.5208 11.0522 47.5108C10.7014 47.4865 10.3507 47.4618 10 47.4368C10.0628 47.0145 10.1996 46.7004 10.4038 46.3269C10.4664 46.2115 10.5289 46.0962 10.5933 45.9773C10.6267 45.9163 10.6602 45.8552 10.6947 45.7924C10.8734 45.4663 11.0498 45.1389 11.2265 44.8117C11.2811 44.7109 11.2811 44.7109 11.3367 44.6081C11.707 43.9226 12.0655 43.2313 12.4222 42.5386C12.5431 42.3042 12.6641 42.0697 12.785 41.8353C12.8418 41.7252 12.8986 41.6152 12.957 41.5018C13.5297 40.3935 14.1143 39.2916 14.7043 38.1925C14.7705 38.0692 14.8367 37.9459 14.9028 37.8226C14.9357 37.7613 14.9686 37.7 15.0025 37.6369C15.5192 36.6733 16.0259 35.7049 16.5263 34.7327C16.5757 34.6368 16.5757 34.6368 16.6261 34.5388C16.7234 34.3498 16.8207 34.1607 16.918 33.9717C17.5556 32.7323 18.2066 31.5005 18.8654 30.2724C18.9321 30.1481 18.9987 30.0239 19.0654 29.8996C19.115 29.8071 19.115 29.8071 19.1656 29.7128C19.8451 28.4452 20.506 27.1683 21.1652 25.89C21.7397 24.7782 22.3262 23.6729 22.9178 22.5701C22.9844 22.446 23.051 22.3219 23.1176 22.1978C23.1506 22.1361 23.1837 22.0745 23.2177 22.0111C23.8973 20.7434 24.5581 19.4665 25.2174 18.1882C25.7919 17.0763 26.3784 15.9711 26.97 14.8683C27.0366 14.7442 27.1031 14.6201 27.1697 14.4959C27.2028 14.4343 27.2358 14.3727 27.2699 14.3092C27.8897 13.1531 28.4943 11.9895 29.0955 10.8235C29.5062 10.0272 29.923 9.23418 30.3408 8.44164C30.5787 7.99026 30.8158 7.53852 31.053 7.08683C31.141 6.91947 31.2289 6.7521 31.3168 6.58474C31.3798 6.46493 31.4427 6.34512 31.5076 6.22168Z" fill="#F8FDFA"/>
<path d="M79.654 55.18C78.7447 55.18 77.894 55.114 77.102 54.982C76.3247 54.85 75.65 54.6593 75.078 54.41V51.792C75.7233 52.056 76.42 52.2686 77.168 52.43C77.916 52.5913 78.6493 52.672 79.368 52.672C80.3947 52.672 81.15 52.5766 81.634 52.386C82.118 52.1953 82.36 51.7626 82.36 51.088C82.36 50.6626 82.2573 50.3253 82.052 50.076C81.8467 49.8266 81.4873 49.6066 80.974 49.416C80.4753 49.2106 79.764 48.9833 78.84 48.734C77.3587 48.3233 76.3173 47.81 75.716 47.194C75.1147 46.578 74.814 45.7273 74.814 44.642C74.814 43.3366 75.2907 42.332 76.244 41.628C77.1973 40.924 78.5833 40.572 80.402 40.572C81.2527 40.572 82.0447 40.6306 82.778 40.748C83.5113 40.8653 84.1053 41.0046 84.56 41.166V43.784C83.3573 43.3293 82.1033 43.102 80.798 43.102C79.874 43.102 79.148 43.2046 78.62 43.41C78.092 43.6006 77.828 44.0113 77.828 44.642C77.828 45.0086 77.9233 45.302 78.114 45.522C78.3047 45.742 78.6273 45.94 79.082 46.116C79.5513 46.292 80.204 46.49 81.04 46.71C82.1987 47.018 83.0933 47.3846 83.724 47.81C84.3547 48.2353 84.7873 48.7193 85.022 49.262C85.2713 49.8046 85.396 50.4133 85.396 51.088C85.396 52.32 84.9267 53.31 83.988 54.058C83.0493 54.806 81.6047 55.18 79.654 55.18ZM90.2671 54.96V43.08H85.9111V40.792H97.5711V43.08H93.2371V54.96H90.2671ZM99.2091 54.96V40.792H109.373V43.102H102.179V46.732H108.559V49.02H102.179V52.672H109.373V54.96H99.2091ZM111.434 54.96V40.792H121.598V43.102H114.404V46.732H120.784V49.02H114.404V52.672H121.598V54.96H111.434ZM123.658 54.96V40.792H126.628V52.672H133.602V54.96H123.658ZM146.98 55.18C144.604 55.18 142.786 54.542 141.524 53.266C140.263 51.9753 139.632 50.2226 139.632 48.008C139.632 45.6613 140.241 43.8353 141.458 42.53C142.69 41.2246 144.524 40.572 146.958 40.572C147.809 40.572 148.572 40.638 149.246 40.77C149.936 40.8873 150.581 41.056 151.182 41.276V43.872C149.936 43.3586 148.601 43.102 147.178 43.102C145.565 43.102 144.406 43.5053 143.702 44.312C142.998 45.1186 142.646 46.3506 142.646 48.008C142.646 51.1173 144.172 52.672 147.222 52.672C147.912 52.672 148.594 52.6133 149.268 52.496C149.943 52.364 150.588 52.1733 151.204 51.924V54.542C150.603 54.7326 149.958 54.8866 149.268 55.004C148.594 55.1213 147.831 55.18 146.98 55.18ZM159.28 55.18C154.689 55.18 152.394 52.7673 152.394 47.942C152.394 45.346 152.973 43.4686 154.132 42.31C155.291 41.1513 157.007 40.572 159.28 40.572C161.553 40.572 163.269 41.1513 164.428 42.31C165.587 43.4686 166.166 45.346 166.166 47.942C166.166 52.7673 163.871 55.18 159.28 55.18ZM159.28 52.65C160.615 52.65 161.59 52.2686 162.206 51.506C162.837 50.7286 163.152 49.5406 163.152 47.942C163.152 46.1673 162.837 44.9206 162.206 44.202C161.59 43.4686 160.615 43.102 159.28 43.102C157.945 43.102 156.963 43.4686 156.332 44.202C155.716 44.9206 155.408 46.1673 155.408 47.942C155.408 49.5406 155.716 50.7286 156.332 51.506C156.963 52.2686 157.945 52.65 159.28 52.65ZM168.238 54.96V40.792H170.812L177.522 50.23V40.792H180.492V54.96H177.918L171.208 45.522V54.96H168.238ZM187.398 55.18C186.489 55.18 185.638 55.114 184.846 54.982C184.069 54.85 183.394 54.6593 182.822 54.41V51.792C183.467 52.056 184.164 52.2686 184.912 52.43C185.66 52.5913 186.393 52.672 187.112 52.672C188.139 52.672 188.894 52.5766 189.378 52.386C189.862 52.1953 190.104 51.7626 190.104 51.088C190.104 50.6626 190.001 50.3253 189.796 50.076C189.591 49.8266 189.231 49.6066 188.718 49.416C188.219 49.2106 187.508 48.9833 186.584 48.734C185.103 48.3233 184.061 47.81 183.46 47.194C182.859 46.578 182.558 45.7273 182.558 44.642C182.558 43.3366 183.035 42.332 183.988 41.628C184.941 40.924 186.327 40.572 188.146 40.572C188.997 40.572 189.789 40.6306 190.522 40.748C191.255 40.8653 191.849 41.0046 192.304 41.166V43.784C191.101 43.3293 189.847 43.102 188.542 43.102C187.618 43.102 186.892 43.2046 186.364 43.41C185.836 43.6006 185.572 44.0113 185.572 44.642C185.572 45.0086 185.667 45.302 185.858 45.522C186.049 45.742 186.371 45.94 186.826 46.116C187.295 46.292 187.948 46.49 188.784 46.71C189.943 47.018 190.837 47.3846 191.468 47.81C192.099 48.2353 192.531 48.7193 192.766 49.262C193.015 49.8046 193.14 50.4133 193.14 51.088C193.14 52.32 192.671 53.31 191.732 54.058C190.793 54.806 189.349 55.18 187.398 55.18ZM198.011 54.96V43.08H193.655V40.792H205.315V43.08H200.981V54.96H198.011ZM206.953 54.96V40.792H213.751C215.379 40.792 216.575 41.2246 217.337 42.09C218.1 42.9406 218.481 44.092 218.481 45.544C218.481 46.4973 218.232 47.3186 217.733 48.008C217.249 48.6973 216.56 49.196 215.665 49.504C215.9 49.6946 216.083 49.9 216.215 50.12C216.362 50.34 216.509 50.6333 216.655 51L218.371 54.96H215.291L213.619 51.154C213.473 50.8313 213.311 50.604 213.135 50.472C212.959 50.34 212.666 50.274 212.255 50.274H209.923V54.96H206.953ZM209.923 47.81H212.981C213.759 47.81 214.367 47.6413 214.807 47.304C215.247 46.952 215.467 46.3653 215.467 45.544C215.467 44.752 215.277 44.1726 214.895 43.806C214.514 43.4393 213.935 43.256 213.157 43.256H209.923V47.81ZM226.779 55.18C224.828 55.18 223.281 54.7106 222.137 53.772C221.007 52.8186 220.443 51.44 220.443 49.636V40.792H223.413V49.416C223.413 50.5013 223.706 51.3153 224.293 51.858C224.879 52.386 225.708 52.65 226.779 52.65C227.849 52.65 228.671 52.386 229.243 51.858C229.829 51.3153 230.123 50.5013 230.123 49.416V40.792H233.093V49.636C233.093 51.44 232.528 52.8186 231.399 53.772C230.269 54.7106 228.729 55.18 226.779 55.18ZM242.392 55.18C240.016 55.18 238.198 54.542 236.936 53.266C235.675 51.9753 235.044 50.2226 235.044 48.008C235.044 45.6613 235.653 43.8353 236.87 42.53C238.102 41.2246 239.936 40.572 242.37 40.572C243.221 40.572 243.984 40.638 244.658 40.77C245.348 40.8873 245.993 41.056 246.594 41.276V43.872C245.348 43.3586 244.013 43.102 242.59 43.102C240.977 43.102 239.818 43.5053 239.114 44.312C238.41 45.1186 238.058 46.3506 238.058 48.008C238.058 51.1173 239.584 52.672 242.634 52.672C243.324 52.672 244.006 52.6133 244.68 52.496C245.355 52.364 246 52.1733 246.616 51.924V54.542C246.015 54.7326 245.37 54.8866 244.68 55.004C244.006 55.1213 243.243 55.18 242.392 55.18ZM252.152 54.96V43.08H247.796V40.792H259.456V43.08H255.122V54.96H252.152ZM261.094 54.96V40.792H264.064V54.96H261.094ZM273.018 55.18C268.428 55.18 266.132 52.7673 266.132 47.942C266.132 45.346 266.712 43.4686 267.87 42.31C269.029 41.1513 270.745 40.572 273.018 40.572C275.292 40.572 277.008 41.1513 278.166 42.31C279.325 43.4686 279.904 45.346 279.904 47.942C279.904 52.7673 277.609 55.18 273.018 55.18ZM273.018 52.65C274.353 52.65 275.328 52.2686 275.944 51.506C276.575 50.7286 276.89 49.5406 276.89 47.942C276.89 46.1673 276.575 44.9206 275.944 44.202C275.328 43.4686 274.353 43.102 273.018 43.102C271.684 43.102 270.701 43.4686 270.07 44.202C269.454 44.9206 269.146 46.1673 269.146 47.942C269.146 49.5406 269.454 50.7286 270.07 51.506C270.701 52.2686 271.684 52.65 273.018 52.65ZM281.977 54.96V40.792H284.551L291.261 50.23V40.792H294.231V54.96H291.657L284.947 45.522V54.96H281.977Z" fill="#CB1414"/>
</svg>
