<svg width="296" height="66" viewBox="0 0 296 66" fill="none" xmlns="http://www.w3.org/2000/svg">
<path d="M77.74 26L82.66 13.12H85.62L90.52 26H87.72L86.5 22.9H81.76L80.56 26H77.74ZM82.16 20.82H86.1L84.12 15.64L82.16 20.82ZM92.3978 26V13.12H98.5778C100.058 13.12 101.144 13.5133 101.838 14.3C102.531 15.0733 102.878 16.12 102.878 17.44C102.878 18.3067 102.651 19.0533 102.198 19.68C101.758 20.3067 101.131 20.76 100.318 21.04C100.531 21.2133 100.698 21.4 100.818 21.6C100.951 21.8 101.084 22.0667 101.218 22.4L102.778 26H99.9778L98.4578 22.54C98.3245 22.2467 98.1778 22.04 98.0178 21.92C97.8578 21.8 97.5911 21.74 97.2178 21.74H95.0978V26H92.3978ZM95.0978 19.5H97.8778C98.5845 19.5 99.1378 19.3467 99.5378 19.04C99.9378 18.72 100.138 18.1867 100.138 17.44C100.138 16.72 99.9645 16.1933 99.6178 15.86C99.2711 15.5267 98.7445 15.36 98.0378 15.36H95.0978V19.5ZM110.328 26.2C106.155 26.2 104.068 24.0067 104.068 19.62C104.068 17.26 104.595 15.5533 105.648 14.5C106.701 13.4467 108.261 12.92 110.328 12.92C112.395 12.92 113.955 13.4467 115.008 14.5C116.061 15.5533 116.588 17.26 116.588 19.62C116.588 24.0067 114.501 26.2 110.328 26.2ZM110.328 23.9C111.541 23.9 112.428 23.5533 112.988 22.86C113.561 22.1533 113.848 21.0733 113.848 19.62C113.848 18.0067 113.561 16.8733 112.988 16.22C112.428 15.5533 111.541 15.22 110.328 15.22C109.115 15.22 108.221 15.5533 107.648 16.22C107.088 16.8733 106.808 18.0067 106.808 19.62C106.808 21.0733 107.088 22.1533 107.648 22.86C108.221 23.5533 109.115 23.9 110.328 23.9ZM120.271 26L117.271 13.12H119.931L121.871 21.82L123.971 14.8V13.12H126.171L128.651 21.84L130.651 13.12H133.291L130.311 26H127.751L125.391 17.76L122.851 26H120.271ZM140.23 26.2C136.057 26.2 133.97 24.0067 133.97 19.62C133.97 17.26 134.497 15.5533 135.55 14.5C136.604 13.4467 138.164 12.92 140.23 12.92C142.297 12.92 143.857 13.4467 144.91 14.5C145.964 15.5533 146.49 17.26 146.49 19.62C146.49 24.0067 144.404 26.2 140.23 26.2ZM140.23 23.9C141.444 23.9 142.33 23.5533 142.89 22.86C143.464 22.1533 143.75 21.0733 143.75 19.62C143.75 18.0067 143.464 16.8733 142.89 16.22C142.33 15.5533 141.444 15.22 140.23 15.22C139.017 15.22 138.124 15.5533 137.55 16.22C136.99 16.8733 136.71 18.0067 136.71 19.62C136.71 21.0733 136.99 22.1533 137.55 22.86C138.124 23.5533 139.017 23.9 140.23 23.9ZM152.374 26.2C151.548 26.2 150.774 26.14 150.054 26.02C149.348 25.9 148.734 25.7267 148.214 25.5V23.12C148.801 23.36 149.434 23.5533 150.114 23.7C150.794 23.8467 151.461 23.92 152.114 23.92C153.048 23.92 153.734 23.8333 154.174 23.66C154.614 23.4867 154.834 23.0933 154.834 22.48C154.834 22.0933 154.741 21.7867 154.554 21.56C154.368 21.3333 154.041 21.1333 153.574 20.96C153.121 20.7733 152.474 20.5667 151.634 20.34C150.288 19.9667 149.341 19.5 148.794 18.94C148.248 18.38 147.974 17.6067 147.974 16.62C147.974 15.4333 148.408 14.52 149.274 13.88C150.141 13.24 151.401 12.92 153.054 12.92C153.828 12.92 154.548 12.9733 155.214 13.08C155.881 13.1867 156.421 13.3133 156.834 13.46V15.84C155.741 15.4267 154.601 15.22 153.414 15.22C152.574 15.22 151.914 15.3133 151.434 15.5C150.954 15.6733 150.714 16.0467 150.714 16.62C150.714 16.9533 150.801 17.22 150.974 17.42C151.148 17.62 151.441 17.8 151.854 17.96C152.281 18.12 152.874 18.3 153.634 18.5C154.688 18.78 155.501 19.1133 156.074 19.5C156.648 19.8867 157.041 20.3267 157.254 20.82C157.481 21.3133 157.594 21.8667 157.594 22.48C157.594 23.6 157.168 24.5 156.314 25.18C155.461 25.86 154.148 26.2 152.374 26.2ZM159.468 26V13.12H162.168V18.52H167.788V13.12H170.488V26H167.788V20.6H162.168V26H159.468ZM172.769 26V13.12H182.009V15.22H175.469V18.52H181.269V20.6H175.469V23.92H182.009V26H172.769ZM189.887 26.2C187.727 26.2 186.087 25.6333 184.967 24.5C183.847 23.3667 183.287 21.7933 183.287 19.78C183.287 17.6467 183.854 15.9733 184.987 14.76C186.12 13.5333 187.807 12.92 190.047 12.92C190.82 12.92 191.52 12.9667 192.147 13.06C192.774 13.14 193.367 13.2733 193.927 13.46V15.78C193.367 15.58 192.774 15.44 192.147 15.36C191.534 15.2667 190.9 15.22 190.247 15.22C188.714 15.22 187.627 15.6 186.987 16.36C186.347 17.1067 186.027 18.2467 186.027 19.78C186.027 22.54 187.327 23.92 189.927 23.92C190.38 23.92 190.82 23.8867 191.247 23.82C191.687 23.74 192.074 23.64 192.407 23.52V20.52H189.407V18.8H194.687V25.1C194.247 25.38 193.634 25.6333 192.847 25.86C192.06 26.0867 191.074 26.2 189.887 26.2ZM196.558 26V13.12H203.078C204.371 13.12 205.331 13.4267 205.958 14.04C206.598 14.64 206.918 15.4933 206.918 16.6C206.918 17.2933 206.785 17.8733 206.518 18.34C206.251 18.7933 205.891 19.1467 205.438 19.4C206.038 19.5867 206.511 19.9 206.858 20.34C207.218 20.7667 207.398 21.4 207.398 22.24C207.398 23.48 207.045 24.42 206.338 25.06C205.645 25.6867 204.638 26 203.318 26H196.558ZM199.258 18.46H202.578C203.231 18.46 203.698 18.32 203.978 18.04C204.258 17.7467 204.398 17.34 204.398 16.82C204.398 16.2467 204.251 15.82 203.958 15.54C203.678 15.26 203.151 15.12 202.378 15.12H199.258V18.46ZM199.258 24.02H202.678C203.358 24.02 203.858 23.88 204.178 23.6C204.498 23.32 204.658 22.8267 204.658 22.12C204.658 21.5467 204.498 21.12 204.178 20.84C203.871 20.56 203.311 20.42 202.498 20.42H199.258V24.02ZM209.273 26V13.12H218.513V15.22H211.973V18.52H217.773V20.6H211.973V23.92H218.513V26H209.273Z" fill="#0082C5"/>
<g clip-path="url(#clip0_261_572)">
<circle cx="32.5" cy="32.5" r="32.5" fill="#0082C5"/>
<path d="M31.5076 6C31.5762 6 31.6447 6 31.7154 6C31.9063 6.23892 32.0847 6.47882 32.2609 6.72772C32.3157 6.80393 32.3704 6.88014 32.4269 6.95865C32.5448 7.1227 32.6624 7.28692 32.7798 7.45131C33.0809 7.87233 33.3855 8.29105 33.6895 8.71011C33.8132 8.88093 33.9368 9.05175 34.0605 9.22257C34.3814 9.66541 34.7041 10.107 35.0273 10.5482C36.3615 12.372 37.6712 14.2115 38.9677 16.0604C39.146 16.3146 39.3246 16.5687 39.5031 16.8228C40.4706 18.2001 41.437 19.578 42.3893 20.9651C42.5223 21.1582 42.6561 21.3508 42.7902 21.5431C43.3762 22.3849 43.9429 23.237 44.4928 24.1012C44.5891 24.2523 44.6868 24.4026 44.7847 24.5528C44.9109 24.77 44.9109 24.77 44.9109 24.9708C44.8414 24.9712 44.7719 24.9716 44.7002 24.9721C43.0111 24.9824 41.322 24.9933 39.6329 25.0048C38.8161 25.0104 37.9993 25.0158 37.1824 25.0207C36.4707 25.025 35.759 25.0296 35.0474 25.0347C34.6703 25.0374 34.2932 25.0399 33.9162 25.042C33.4959 25.0443 33.0757 25.0474 32.6554 25.0505C32.5295 25.0511 32.4036 25.0517 32.2738 25.0523C32.1031 25.0538 32.1031 25.0538 31.929 25.0553C31.8295 25.0559 31.73 25.0566 31.6274 25.0572C31.4057 25.0471 31.4057 25.0471 31.2998 25.1715C31.2981 25.3432 31.3036 25.5149 31.3124 25.6863C31.3174 25.7902 31.3224 25.894 31.3276 26.001C31.3334 26.1103 31.3393 26.2195 31.3453 26.3321C31.3507 26.4418 31.3561 26.5514 31.3617 26.6644C31.3752 26.9363 31.3892 27.2082 31.4037 27.4801C31.4815 27.4789 31.5592 27.4776 31.6394 27.4763C32.3848 27.4643 33.1301 27.4525 33.8755 27.4409C34.2584 27.4349 34.6413 27.4289 35.0242 27.4226C37.5991 27.3809 40.1711 27.363 42.7461 27.4171C43.0612 27.4237 43.3763 27.4297 43.6915 27.4356C44.7046 27.4556 45.7172 27.4827 46.7296 27.526C46.8173 27.5295 46.9051 27.533 46.9956 27.5367C48.3012 27.597 49.5644 27.7982 50.4956 28.7536C51.9566 30.5163 52.0427 32.8499 51.8723 35.0082C51.7966 35.5989 51.6563 36.1523 51.4567 36.7146C51.4291 36.7956 51.4015 36.8766 51.3731 36.96C50.9662 37.9146 50.0155 38.5948 49.0718 39.0056C46.8692 39.8267 44.3671 39.6932 42.0516 39.5776C40.7416 39.5137 39.4315 39.4904 38.1202 39.4716C37.9075 39.4686 37.6948 39.4654 37.4822 39.4623C34.667 39.4214 31.8518 39.4137 29.0363 39.4124C28.7031 39.4122 28.3698 39.4118 28.0365 39.4114C27.5071 39.4108 26.9778 39.4108 26.4484 39.4112C26.2521 39.4113 26.0559 39.4113 25.8597 39.411C24.4726 39.4097 24.4726 39.4097 23.0916 39.5251C22.9757 39.8609 22.9981 40.0349 23.0457 40.3826C23.0601 40.4903 23.0745 40.598 23.0893 40.709C23.1051 40.8214 23.1208 40.9337 23.137 41.0495C23.1524 41.1631 23.1677 41.2766 23.1835 41.3936C23.2215 41.6742 23.2602 41.9547 23.2994 42.2352C23.3662 42.2354 23.433 42.2355 23.5018 42.2357C27.4564 42.246 31.4111 42.2569 35.3657 42.2684C35.84 42.2698 36.3144 42.2712 36.7887 42.2726C36.8831 42.2728 36.9776 42.2731 37.0749 42.2734C38.606 42.2778 40.1371 42.2819 41.6683 42.2858C43.2382 42.2899 44.8081 42.2943 46.378 42.2991C47.3475 42.3021 48.317 42.3047 49.2865 42.307C49.9504 42.3086 50.6143 42.3105 51.2782 42.3127C51.6618 42.314 52.0454 42.3151 52.4291 42.3158C52.844 42.3166 53.2589 42.3181 53.6738 42.3197C53.8577 42.3198 53.8577 42.3198 54.0453 42.32C54.1555 42.3205 54.2658 42.3211 54.3793 42.3216C54.4753 42.3219 54.5712 42.3222 54.67 42.3225C54.8854 42.3356 54.8854 42.3356 54.9893 42.4359C54.9985 42.6963 55.0013 42.9539 54.9995 43.2142C54.9993 43.331 54.9993 43.331 54.999 43.4501C54.9984 43.6997 54.9971 43.9492 54.9958 44.1988C54.9953 44.3676 54.9948 44.5364 54.9944 44.7051C54.9932 45.1198 54.9915 45.5344 54.9893 45.949C51.0185 45.9559 47.0476 45.9612 43.0767 45.9644C42.6074 45.9648 42.138 45.9652 41.6687 45.9656C41.5286 45.9657 41.5286 45.9657 41.3856 45.9658C39.8749 45.9671 38.3642 45.9695 36.8535 45.9723C35.3022 45.9751 33.7509 45.9768 32.1995 45.9774C31.2431 45.9778 30.2867 45.9791 29.3302 45.9815C28.6734 45.9831 28.0166 45.9836 27.3598 45.9832C26.9814 45.983 26.6031 45.9833 26.2248 45.9849C22.055 46.0019 22.055 46.0019 20.6759 44.7759C19.5599 43.6335 19.3116 42.0367 19.33 40.5249C19.4005 39.1974 19.8547 37.6426 20.8902 36.6958C22.1681 35.7674 23.6626 35.5921 25.2086 35.5979C25.3081 35.5975 25.4076 35.5971 25.5101 35.5967C26.0572 35.5974 26.6009 35.6131 27.147 35.6464C28.2151 35.7112 29.2796 35.727 30.3496 35.7286C30.5374 35.7292 30.7252 35.7299 30.9129 35.7306C31.5209 35.7327 32.129 35.7338 32.737 35.7348C32.9476 35.7352 33.1583 35.7356 33.3689 35.736C34.3568 35.7379 35.3447 35.7393 36.3326 35.7402C37.47 35.7412 38.6075 35.7438 39.745 35.7479C40.6274 35.7509 41.5098 35.7524 42.3923 35.7527C42.9182 35.7529 43.4442 35.7538 43.9701 35.7564C44.4633 35.7587 44.9565 35.7591 45.4497 35.7581C45.6306 35.758 45.8115 35.7587 45.9924 35.7601C46.2392 35.7618 46.4859 35.7611 46.7327 35.7598C46.8043 35.7609 46.8759 35.762 46.9497 35.7631C47.4389 35.7568 47.6851 35.6433 48.0279 35.3093C48.2969 34.7866 48.2703 34.2372 48.2682 33.6657C48.2699 33.5746 48.2715 33.4835 48.2733 33.3897C48.2737 32.7847 48.1762 32.3499 47.924 31.7962C47.8939 31.6995 47.8638 31.6027 47.8327 31.503C47.7345 31.274 47.7345 31.274 47.4861 31.205C47.3927 31.1931 47.2994 31.1812 47.2032 31.1689C47.1123 31.156 47.0213 31.143 46.9276 31.1297C46.7522 31.1118 46.7522 31.1118 46.5733 31.0936C46.4918 31.0849 46.4103 31.0762 46.3263 31.0672C45.5782 30.9932 44.8377 30.9779 44.0862 30.9807C43.9556 30.9809 43.825 30.9811 43.6905 30.9813C42.7649 30.9852 41.8408 31.0075 40.9158 31.0364C39.3681 31.0845 37.8211 31.1073 36.2726 31.1114C36.0436 31.1121 35.8145 31.1131 35.5855 31.1145C30.1097 31.1453 30.1097 31.1453 28.7023 29.8891C27.6215 28.7111 27.4614 27.1128 27.5386 25.6055C27.637 24.4994 27.9901 23.4423 28.7347 22.5869C30.3671 21.2666 32.5275 21.2208 34.5634 21.2363C34.8146 21.2381 35.0657 21.2383 35.3168 21.2383C36.1648 21.2402 37.0024 21.2595 37.8456 21.3573C37.4338 20.6077 36.9949 19.8822 36.5208 19.1679C36.4573 19.0718 36.3938 18.9758 36.3284 18.8768C35.8928 18.2223 35.4409 17.5829 34.9656 16.9549C34.7307 16.6426 34.5051 16.3254 34.2805 16.0061C33.8925 15.4636 33.4901 14.9328 33.0791 14.4064C33.0209 14.3309 32.9628 14.2554 32.9028 14.1777C32.8477 14.1077 32.7926 14.0377 32.7357 13.9657C32.6867 13.903 32.6377 13.8403 32.5872 13.7758C32.4383 13.6008 32.4383 13.6008 32.131 13.5281C32.1072 13.5934 32.0833 13.6588 32.0588 13.7261C31.8784 14.1303 31.6485 14.4985 31.4167 14.8769C30.2821 16.7544 29.2439 18.6759 28.2223 20.6124C28.1796 20.6934 28.1368 20.7744 28.0928 20.8579C28.0144 21.0063 27.9362 21.1548 27.8581 21.3034C27.6598 21.6794 27.4591 22.054 27.2535 22.4264C26.4034 23.9688 25.5997 25.5336 24.7927 27.0973C24.5834 27.5027 24.3739 27.9079 24.1644 28.3132C23.6333 29.3402 23.1027 30.3675 22.5721 31.3947C21.9988 32.5046 21.4255 33.6144 20.8517 34.724C20.6443 35.1252 20.4369 35.5265 20.2297 35.9279C18.667 38.9558 18.667 38.9558 17.8975 40.346C17.4835 41.0979 17.1123 41.8714 16.7343 42.6406C15.4535 45.2425 15.4535 45.2425 14.5717 45.8487C13.6282 46.1525 12.4675 45.9162 11.4871 45.8487C11.3421 45.839 11.1972 45.8293 11.0522 45.8197C10.7014 45.7962 10.3507 45.7724 10 45.7483C10.0628 45.341 10.1996 45.0381 10.4038 44.6779C10.4664 44.5666 10.5289 44.4553 10.5933 44.3407C10.6267 44.2818 10.6602 44.223 10.6947 44.1624C10.8734 43.8479 11.0498 43.5322 11.2265 43.2166C11.2811 43.1194 11.2811 43.1194 11.3367 43.0202C11.707 42.3591 12.0655 41.6924 12.4222 41.0244C12.5431 40.7983 12.6641 40.5722 12.785 40.3461C12.8418 40.24 12.8986 40.1338 12.957 40.0245C13.5297 38.9556 14.1143 37.893 14.7043 36.833C14.7705 36.714 14.8367 36.5951 14.9028 36.4762C14.9357 36.4171 14.9686 36.358 15.0025 36.2971C15.5192 35.3678 16.0259 34.4339 16.5263 33.4963C16.5757 33.4038 16.5757 33.4038 16.6261 33.3093C16.7234 33.127 16.8207 32.9447 16.918 32.7623C17.5556 31.5671 18.2066 30.3792 18.8654 29.1947C18.9321 29.0749 18.9987 28.955 19.0654 28.8352C19.115 28.746 19.115 28.746 19.1656 28.6551C19.8451 27.4326 20.506 26.2011 21.1652 24.9683C21.7397 23.896 22.3262 22.8301 22.9178 21.7666C22.9844 21.6469 23.051 21.5272 23.1176 21.4075C23.1506 21.3481 23.1837 21.2886 23.2177 21.2274C23.8973 20.0049 24.5581 18.7734 25.2174 17.5406C25.7919 16.4683 26.3784 15.4024 26.97 14.3389C27.0366 14.2192 27.1031 14.0995 27.1697 13.9798C27.2028 13.9204 27.2358 13.8609 27.2699 13.7997C27.8897 12.6847 28.4943 11.5625 29.0955 10.438C29.5062 9.67006 29.923 8.90528 30.3408 8.14095C30.5787 7.70563 30.8158 7.26997 31.053 6.83436C31.141 6.67295 31.2289 6.51154 31.3168 6.35013C31.3798 6.23459 31.4427 6.11905 31.5076 6Z" fill="#F8FDFA"/>
<path d="M79.654 54.22C78.7447 54.22 77.894 54.154 77.102 54.022C76.3247 53.89 75.65 53.6993 75.078 53.45V50.832C75.7233 51.096 76.42 51.3087 77.168 51.47C77.916 51.6313 78.6493 51.712 79.368 51.712C80.3947 51.712 81.15 51.6167 81.634 51.426C82.118 51.2353 82.36 50.8027 82.36 50.128C82.36 49.7027 82.2573 49.3653 82.052 49.116C81.8467 48.8667 81.4873 48.6467 80.974 48.456C80.4753 48.2507 79.764 48.0233 78.84 47.774C77.3587 47.3633 76.3173 46.85 75.716 46.234C75.1147 45.618 74.814 44.7673 74.814 43.682C74.814 42.3767 75.2907 41.372 76.244 40.668C77.1973 39.964 78.5833 39.612 80.402 39.612C81.2527 39.612 82.0447 39.6707 82.778 39.788C83.5113 39.9053 84.1053 40.0447 84.56 40.206V42.824C83.3573 42.3693 82.1033 42.142 80.798 42.142C79.874 42.142 79.148 42.2447 78.62 42.45C78.092 42.6407 77.828 43.0513 77.828 43.682C77.828 44.0487 77.9233 44.342 78.114 44.562C78.3047 44.782 78.6273 44.98 79.082 45.156C79.5513 45.332 80.204 45.53 81.04 45.75C82.1987 46.058 83.0933 46.4247 83.724 46.85C84.3547 47.2753 84.7873 47.7593 85.022 48.302C85.2713 48.8447 85.396 49.4533 85.396 50.128C85.396 51.36 84.9267 52.35 83.988 53.098C83.0493 53.846 81.6047 54.22 79.654 54.22ZM90.2671 54V42.12H85.9111V39.832H97.5711V42.12H93.2371V54H90.2671ZM99.2091 54V39.832H109.373V42.142H102.179V45.772H108.559V48.06H102.179V51.712H109.373V54H99.2091ZM111.434 54V39.832H121.598V42.142H114.404V45.772H120.784V48.06H114.404V51.712H121.598V54H111.434ZM123.658 54V39.832H126.628V51.712H133.602V54H123.658ZM146.98 54.22C144.604 54.22 142.786 53.582 141.524 52.306C140.263 51.0153 139.632 49.2627 139.632 47.048C139.632 44.7013 140.241 42.8753 141.458 41.57C142.69 40.2647 144.524 39.612 146.958 39.612C147.809 39.612 148.572 39.678 149.246 39.81C149.936 39.9273 150.581 40.096 151.182 40.316V42.912C149.936 42.3987 148.601 42.142 147.178 42.142C145.565 42.142 144.406 42.5453 143.702 43.352C142.998 44.1587 142.646 45.3907 142.646 47.048C142.646 50.1573 144.172 51.712 147.222 51.712C147.912 51.712 148.594 51.6533 149.268 51.536C149.943 51.404 150.588 51.2133 151.204 50.964V53.582C150.603 53.7727 149.958 53.9267 149.268 54.044C148.594 54.1613 147.831 54.22 146.98 54.22ZM159.28 54.22C154.689 54.22 152.394 51.8073 152.394 46.982C152.394 44.386 152.973 42.5087 154.132 41.35C155.291 40.1913 157.007 39.612 159.28 39.612C161.553 39.612 163.269 40.1913 164.428 41.35C165.587 42.5087 166.166 44.386 166.166 46.982C166.166 51.8073 163.871 54.22 159.28 54.22ZM159.28 51.69C160.615 51.69 161.59 51.3087 162.206 50.546C162.837 49.7687 163.152 48.5807 163.152 46.982C163.152 45.2073 162.837 43.9607 162.206 43.242C161.59 42.5087 160.615 42.142 159.28 42.142C157.945 42.142 156.963 42.5087 156.332 43.242C155.716 43.9607 155.408 45.2073 155.408 46.982C155.408 48.5807 155.716 49.7687 156.332 50.546C156.963 51.3087 157.945 51.69 159.28 51.69ZM168.238 54V39.832H170.812L177.522 49.27V39.832H180.492V54H177.918L171.208 44.562V54H168.238ZM187.398 54.22C186.489 54.22 185.638 54.154 184.846 54.022C184.069 53.89 183.394 53.6993 182.822 53.45V50.832C183.467 51.096 184.164 51.3087 184.912 51.47C185.66 51.6313 186.393 51.712 187.112 51.712C188.139 51.712 188.894 51.6167 189.378 51.426C189.862 51.2353 190.104 50.8027 190.104 50.128C190.104 49.7027 190.001 49.3653 189.796 49.116C189.591 48.8667 189.231 48.6467 188.718 48.456C188.219 48.2507 187.508 48.0233 186.584 47.774C185.103 47.3633 184.061 46.85 183.46 46.234C182.859 45.618 182.558 44.7673 182.558 43.682C182.558 42.3767 183.035 41.372 183.988 40.668C184.941 39.964 186.327 39.612 188.146 39.612C188.997 39.612 189.789 39.6707 190.522 39.788C191.255 39.9053 191.849 40.0447 192.304 40.206V42.824C191.101 42.3693 189.847 42.142 188.542 42.142C187.618 42.142 186.892 42.2447 186.364 42.45C185.836 42.6407 185.572 43.0513 185.572 43.682C185.572 44.0487 185.667 44.342 185.858 44.562C186.049 44.782 186.371 44.98 186.826 45.156C187.295 45.332 187.948 45.53 188.784 45.75C189.943 46.058 190.837 46.4247 191.468 46.85C192.099 47.2753 192.531 47.7593 192.766 48.302C193.015 48.8447 193.14 49.4533 193.14 50.128C193.14 51.36 192.671 52.35 191.732 53.098C190.793 53.846 189.349 54.22 187.398 54.22ZM198.011 54V42.12H193.655V39.832H205.315V42.12H200.981V54H198.011ZM206.953 54V39.832H213.751C215.379 39.832 216.575 40.2647 217.337 41.13C218.1 41.9807 218.481 43.132 218.481 44.584C218.481 45.5373 218.232 46.3587 217.733 47.048C217.249 47.7373 216.56 48.236 215.665 48.544C215.9 48.7347 216.083 48.94 216.215 49.16C216.362 49.38 216.509 49.6733 216.655 50.04L218.371 54H215.291L213.619 50.194C213.473 49.8713 213.311 49.644 213.135 49.512C212.959 49.38 212.666 49.314 212.255 49.314H209.923V54H206.953ZM209.923 46.85H212.981C213.759 46.85 214.367 46.6813 214.807 46.344C215.247 45.992 215.467 45.4053 215.467 44.584C215.467 43.792 215.277 43.2127 214.895 42.846C214.514 42.4793 213.935 42.296 213.157 42.296H209.923V46.85ZM226.779 54.22C224.828 54.22 223.281 53.7507 222.137 52.812C221.007 51.8587 220.443 50.48 220.443 48.676V39.832H223.413V48.456C223.413 49.5413 223.706 50.3553 224.293 50.898C224.879 51.426 225.708 51.69 226.779 51.69C227.849 51.69 228.671 51.426 229.243 50.898C229.829 50.3553 230.123 49.5413 230.123 48.456V39.832H233.093V48.676C233.093 50.48 232.528 51.8587 231.399 52.812C230.269 53.7507 228.729 54.22 226.779 54.22ZM242.392 54.22C240.016 54.22 238.198 53.582 236.936 52.306C235.675 51.0153 235.044 49.2627 235.044 47.048C235.044 44.7013 235.653 42.8753 236.87 41.57C238.102 40.2647 239.936 39.612 242.37 39.612C243.221 39.612 243.984 39.678 244.658 39.81C245.348 39.9273 245.993 40.096 246.594 40.316V42.912C245.348 42.3987 244.013 42.142 242.59 42.142C240.977 42.142 239.818 42.5453 239.114 43.352C238.41 44.1587 238.058 45.3907 238.058 47.048C238.058 50.1573 239.584 51.712 242.634 51.712C243.324 51.712 244.006 51.6533 244.68 51.536C245.355 51.404 246 51.2133 246.616 50.964V53.582C246.015 53.7727 245.37 53.9267 244.68 54.044C244.006 54.1613 243.243 54.22 242.392 54.22ZM252.152 54V42.12H247.796V39.832H259.456V42.12H255.122V54H252.152ZM261.094 54V39.832H264.064V54H261.094ZM273.018 54.22C268.428 54.22 266.132 51.8073 266.132 46.982C266.132 44.386 266.712 42.5087 267.87 41.35C269.029 40.1913 270.745 39.612 273.018 39.612C275.292 39.612 277.008 40.1913 278.166 41.35C279.325 42.5087 279.904 44.386 279.904 46.982C279.904 51.8073 277.609 54.22 273.018 54.22ZM273.018 51.69C274.353 51.69 275.328 51.3087 275.944 50.546C276.575 49.7687 276.89 48.5807 276.89 46.982C276.89 45.2073 276.575 43.9607 275.944 43.242C275.328 42.5087 274.353 42.142 273.018 42.142C271.684 42.142 270.701 42.5087 270.07 43.242C269.454 43.9607 269.146 45.2073 269.146 46.982C269.146 48.5807 269.454 49.7687 270.07 50.546C270.701 51.3087 271.684 51.69 273.018 51.69ZM281.977 54V39.832H284.551L291.261 49.27V39.832H294.231V54H291.657L284.947 44.562V54H281.977Z" fill="#CB1414"/>
</g>
<defs>
<clipPath id="clip0_261_572">
<rect width="296" height="66" fill="white"/>
</clipPath>
</defs>
</svg>
